<svg xmlns="http://www.w3.org/2000/svg" version="1.1" xmlns:xlink="http://www.w3.org/1999/xlink" width="180" height="180"><svg xmlns="http://www.w3.org/2000/svg" version="1.1" xmlns:xlink="http://www.w3.org/1999/xlink" width="180" height="180"><svg width="180" height="180" viewBox="0 0 180 180" fill="none" xmlns="http://www.w3.org/2000/svg">
<g clip-path="url(#clip0_3_10)">
<g clip-path="url(#clip1_3_10)">
<path fill-rule="evenodd" clip-rule="evenodd" d="M163.511 16.4887H16.4887V163.511H163.511V16.4887ZM10.8984 10.8984V169.102H169.102V10.8984H10.8984Z" fill="#39BA93"></path>
<path fill-rule="evenodd" clip-rule="evenodd" d="M46.3456 55.6171C45.4355 57.4953 44.8745 59.5742 44.7471 61.7694H52.9276C52.9703 59.6092 53.1558 57.5367 53.4638 55.6171H46.3456ZM56.2975 55.6171C55.9719 57.4945 55.7693 59.5702 55.7233 61.7694H57.2635C57.2279 61.8215 57.1946 61.8739 57.1638 61.9264C57.0989 62.0373 56.8657 62.4369 56.8626 62.9639C56.8613 63.2062 56.9151 63.4003 56.9182 63.4118C56.9325 63.4673 56.9467 63.5121 56.9544 63.5355C56.9706 63.585 56.9874 63.6301 56.9986 63.6596C57.0227 63.7233 57.0529 63.798 57.0846 63.8747C57.1494 64.0319 57.241 64.2473 57.3532 64.5073L57.3779 64.5645H55.7499C55.82 66.3057 55.9886 67.9607 56.2379 69.4904H59.5526C59.9516 70.3858 60.3739 71.3311 60.8011 72.2854H56.817C57.0475 73.1851 57.3088 74.0182 57.5957 74.7733C58.1701 76.2848 58.8201 77.4116 59.4708 78.1359C60.1219 78.8606 60.6595 79.0658 61.054 79.0658C61.4485 79.0658 61.9861 78.8606 62.6372 78.1359C62.8058 77.9482 62.9743 77.7336 63.1415 77.4923C63.4262 78.123 63.6948 78.7166 63.9396 79.2561C64.3326 80.1223 64.6654 80.8517 64.9059 81.3726L64.9483 81.4642C63.6909 81.7243 62.3884 81.8609 61.054 81.8609C50.4889 81.8609 41.9241 73.2962 41.9241 62.7311C41.9241 52.166 50.4889 43.6012 61.054 43.6012C71.6191 43.6012 80.1838 52.166 80.1838 62.7311C80.1838 65.674 79.5193 68.4619 78.332 70.9526C78.2115 70.7539 78.0526 70.5658 77.8484 70.3984C77.7747 70.338 77.7097 70.2953 77.6952 70.2858L77.6939 70.285C77.6689 70.2685 77.647 70.255 77.6329 70.2463C77.6039 70.2286 77.5746 70.2114 77.5502 70.1972C77.4997 70.168 77.4363 70.1323 77.3651 70.0926C77.221 70.0122 77.0205 69.902 76.7744 69.7678C76.5525 69.6468 76.2905 69.5045 75.9946 69.3443C76.6549 67.855 77.0989 66.2484 77.287 64.5645H69.1552C69.1415 64.9286 69.1236 65.2899 69.1018 65.6481L68.7795 65.4764C66.6072 64.3186 64.4326 63.1649 62.7865 62.3C62.4218 62.1083 62.0821 61.9303 61.7737 61.7694H66.3846C66.3387 59.5702 66.136 57.4945 65.8105 55.6171H56.2975ZM63.368 64.5645C62.2313 63.964 61.2373 63.4419 60.5023 63.0606L60.3272 62.9699C59.6302 62.6094 59.2059 62.3971 59.1737 62.3969C59.2406 62.3973 60.9932 63.3099 63.368 64.5645ZM58.8096 62.6074C58.7949 62.622 58.7805 62.6373 58.7667 62.6531L58.8096 62.6074ZM56.9104 52.822C57.1173 52.0572 57.3469 51.3437 57.5957 50.6889C58.1701 49.1773 58.8201 48.0505 59.4708 47.3263C60.1219 46.6015 60.6595 46.3963 61.054 46.3963C61.4485 46.3963 61.9861 46.6015 62.6372 47.3263C63.2879 48.0505 63.9379 49.1773 64.5122 50.6889C64.7611 51.3437 64.9906 52.0572 65.1976 52.822H56.9104ZM68.6442 55.6171C68.9522 57.5367 69.1378 59.6092 69.1803 61.7694H77.3609C77.2335 59.5742 76.6725 57.4953 75.7624 55.6171H68.6442ZM65.9196 47.1333C69.1854 48.1509 72.0114 50.1659 74.041 52.822H68.0835C67.8086 51.6971 67.4873 50.6493 67.1251 49.696C66.7708 48.7636 66.3691 47.8998 65.9196 47.1333ZM56.1884 47.1333C52.9226 48.1509 50.0966 50.1659 48.067 52.822H54.0245C54.2993 51.6971 54.6206 50.6493 54.9829 49.696C55.3371 48.7636 55.7389 47.8998 56.1884 47.1333ZM56.1884 78.3289C55.7388 77.5622 55.3371 76.6985 54.9829 75.7661C54.5828 74.7133 54.2327 73.5453 53.94 72.2854H47.8034C49.8485 75.1167 52.7787 77.2664 56.1884 78.3289ZM53.4085 69.4904C53.1732 67.9333 53.0177 66.28 52.9527 64.5645H44.821C45.0153 66.3035 45.4825 67.9602 46.1789 69.4904H53.4085Z" fill="#39BA93"></path>
<path fill-rule="evenodd" clip-rule="evenodd" d="M58.8096 62.6074C58.692 62.7238 58.5954 62.8887 58.5948 62.9739C58.5937 63.1836 66.7153 81.2807 66.883 81.4954C67.1141 81.7912 67.6244 81.6924 67.9006 81.2983C68.0435 81.0944 68.5524 80.2443 69.0316 79.409L69.9028 77.8904L72.4057 80.4097C73.8781 81.8916 75.0136 82.9294 75.1638 82.9303C75.4977 82.9323 78.0875 80.3722 78.0895 80.0381C78.0903 79.8881 77.0657 78.7406 75.6007 77.2511L73.1105 74.7194L74.6391 73.8657C75.4798 73.3963 76.3357 72.8972 76.5413 72.7567C76.9388 72.4848 77.0427 71.9779 76.7501 71.738C76.5456 71.5704 59.3859 62.3981 59.1736 62.3969C59.0911 62.3964 58.9273 62.4912 58.8096 62.6074Z" fill="#39BA93"></path>
<path fill-rule="evenodd" clip-rule="evenodd" d="M132.765 53.3841L55.6202 130.529L51.6673 126.577L128.812 49.4312L132.765 53.3841Z" fill="#39BA93"></path>
<path d="M132.43 121.026V111.142H132.072L125.498 127.198L118.923 111.142H118.566V121.026V136.679H115.123V105.463H119.953L125.453 119.237H125.721L131.222 105.463H135.873V136.679H132.43V121.026Z" fill="#39BA93"></path>
</g>
</g>
<defs>
<clipPath id="clip0_3_10">
<rect width="180" height="180" fill="white"></rect>
</clipPath>
<clipPath id="clip1_3_10">
<rect width="158.203" height="158.203" fill="white" transform="translate(10.8984 10.8984)"></rect>
</clipPath>
</defs>
</svg></svg><style>@media (prefers-color-scheme: light) { :root { filter: none; } }
@media (prefers-color-scheme: dark) { :root { filter: none; } }
</style></svg>